<?xml version="1.0" encoding="UTF-8"?>
<svg version="1.1" xmlns="http://www.w3.org/2000/svg" viewBox="0 0 1024 1024" width="1024" height="1024">
  <!-- Deep rich black squircle background matching Easy brand family -->
  <rect width="1024" height="1024" rx="230" fill="#0e1013"/>
  
  <!-- Scaled and centered Easy family 'e' -->
  <g transform="translate(468, 475) scale(1.156) translate(-440, -512)">
    <path d="M0 0 C0.82564453 0.13889648 1.65128906 0.27779297 2.50195312 0.42089844 C40.96575015 7.22390124 76.0213678 27.33528146 104 54 C104.83015625 54.76570313 105.6603125 55.53140625 106.515625 56.3203125 C137.31870967 85.63292534 154.3319593 128.41835069 159 170 C159.08259567 170.6567421 159.16519135 171.31348419 159.25028992 171.99012756 C159.88942421 177.27168825 160.16008008 182.45956107 160.16796875 187.77734375 C160.17129715 188.58756485 160.17462555 189.39778595 160.17805481 190.2325592 C160.18308345 191.93929484 160.1854644 193.64604017 160.18530273 195.3527832 C160.18746819 197.9000779 160.2056095 200.44692342 160.22460938 202.99414062 C160.27604496 217.68603142 158.88653383 231.56733084 156 246 C63.93 246 -28.14 246 -123 246 C-114.02215295 268.44461763 -102.41989542 282.87440874 -80.125 292.75 C-49.86830912 304.65954854 -14.68842593 302.68997241 15 290 C28.80841327 283.85514466 40.7324311 275.10510474 51 264 C53.91323815 265.32409078 56.05246245 266.77808924 58.36328125 268.984375 C58.99500244 269.58258057 59.62672363 270.18078613 60.27758789 270.79711914 C60.94910889 271.44156982 61.62062988 272.08602051 62.3125 272.75 C63.75499465 274.11871482 65.19770796 275.48719922 66.640625 276.85546875 C67.36958984 277.54946777 68.09855469 278.2434668 68.84960938 278.95849609 C72.06797392 282.01389622 75.31446093 285.03871595 78.5625 288.0625 C79.79959326 289.21602349 81.03657224 290.36966955 82.2734375 291.5234375 C82.88541992 292.09416992 83.49740234 292.66490234 84.12792969 293.25292969 C86.03700292 295.0345322 87.94448045 296.81782886 89.8515625 298.6015625 C95.52416246 303.90549386 101.20375825 309.19964943 106.9375 314.4375 C111.8671394 318.94344597 116.75277401 323.49455042 121.625 328.0625 C122.32488037 328.71855225 123.02476074 329.37460449 123.74584961 330.05053711 C128.72957882 334.72957882 128.72957882 334.72957882 131 337 C130.66739223 342.99973241 124.07803479 347.23908388 120 351 C116.42995397 354.13256686 112.75076778 357.08706606 109 360 C108.47374023 360.41862305 107.94748047 360.83724609 107.40527344 361.26855469 C91.02236786 374.24597079 72.41863031 383.47311655 53 391 C51.82695313 391.46921875 50.65390625 391.9384375 49.4453125 392.421875 C34.32979605 398.18355421 18.14656339 401.41479987 2.16113281 403.69140625 C0.7684714 403.89026798 -0.62297516 404.09793496 -2.01269531 404.31640625 C-28.61052295 408.4304119 -57.54430256 407.25709289 -84 403 C-85.00063477 402.83902832 -86.00126953 402.67805664 -87.03222656 402.51220703 C-139.45397472 393.65039478 -191.63044965 366.15410459 -223.53515625 322.6328125 C-255.45968426 276.2817485 -269.05255226 218.81805487 -259.03515625 162.94140625 C-258.70077337 161.29207181 -258.35529524 159.64495632 -258 158 C-257.80132324 157.07558105 -257.60264648 156.15116211 -257.39794922 155.19873047 C-250.64750658 124.94562314 -237.39339904 95.55930977 -217 72 C-216.34 71.23042969 -215.68 70.46085937 -215 69.66796875 C-212.71268251 67.06530418 -210.37186889 64.52593288 -208 62 C-207.50790039 61.47390137 -207.01580078 60.94780273 -206.50878906 60.40576172 C-193.10036598 46.18856357 -177.87670003 34.79657758 -161 25 C-160.35160156 24.6189209 -159.70320313 24.2378418 -159.03515625 23.84521484 C-146.64552189 16.6475733 -133.49579346 11.72309677 -120 7 C-118.84455688 6.58669434 -118.84455688 6.58669434 -117.66577148 6.16503906 C-80.31760593 -6.84363979 -38.50684147 -6.62625536 0 0 Z " fill="#FFFFFF" transform="translate(491,311)"/>
    <path d="M0 0 C12.21815935 10.69547583 18.93051467 25.15257335 22.0625 40.8125 C-27.7675 40.8125 -77.5975 40.8125 -128.9375 40.8125 C-126.03764094 27.76313423 -120.86069632 17.73910795 -111.9375 7.8125 C-111.41929687 7.20148438 -110.90109375 6.59046875 -110.3671875 5.9609375 C-82.99379239 -24.1635526 -30.83206174 -23.39280556 0 0 Z " fill="#0e1013" transform="translate(495.9375,427.1875)"/>
  </g>
  
  <!-- EasyTrack Characteristic Teal Dot (#00B8A9) -->
  <circle cx="755" cy="640" r="70" fill="#00B8A9"/>
</svg>