<?xml version="1.0" encoding="UTF-8"?>
<svg version="1.1" xmlns="http://www.w3.org/2000/svg" width="1024" height="1024">
<path d="M0 0 C337.92 0 675.84 0 1024 0 C1024 337.92 1024 675.84 1024 1024 C686.08 1024 348.16 1024 0 1024 C0 686.08 0 348.16 0 0 Z " fill="#030709" transform="translate(0,0)"/>
<path d="M0 0 C0.82564453 0.13889648 1.65128906 0.27779297 2.50195312 0.42089844 C40.96575015 7.22390124 76.0213678 27.33528146 104 54 C104.83015625 54.76570313 105.6603125 55.53140625 106.515625 56.3203125 C137.31870967 85.63292534 154.3319593 128.41835069 159 170 C159.08259567 170.6567421 159.16519135 171.31348419 159.25028992 171.99012756 C159.88942421 177.27168825 160.16008008 182.45956107 160.16796875 187.77734375 C160.17129715 188.58756485 160.17462555 189.39778595 160.17805481 190.2325592 C160.18308345 191.93929484 160.1854644 193.64604017 160.18530273 195.3527832 C160.18746819 197.9000779 160.2056095 200.44692342 160.22460938 202.99414062 C160.27604496 217.68603142 158.88653383 231.56733084 156 246 C63.93 246 -28.14 246 -123 246 C-114.02215295 268.44461763 -102.41989542 282.87440874 -80.125 292.75 C-49.86830912 304.65954854 -14.68842593 302.68997241 15 290 C28.80841327 283.85514466 40.7324311 275.10510474 51 264 C53.91323815 265.32409078 56.05246245 266.77808924 58.36328125 268.984375 C58.99500244 269.58258057 59.62672363 270.18078613 60.27758789 270.79711914 C60.94910889 271.44156982 61.62062988 272.08602051 62.3125 272.75 C63.75499465 274.11871482 65.19770796 275.48719922 66.640625 276.85546875 C67.36958984 277.54946777 68.09855469 278.2434668 68.84960938 278.95849609 C72.06797392 282.01389622 75.31446093 285.03871595 78.5625 288.0625 C79.79959326 289.21602349 81.03657224 290.36966955 82.2734375 291.5234375 C82.88541992 292.09416992 83.49740234 292.66490234 84.12792969 293.25292969 C86.03700292 295.0345322 87.94448045 296.81782886 89.8515625 298.6015625 C95.52416246 303.90549386 101.20375825 309.19964943 106.9375 314.4375 C111.8671394 318.94344597 116.75277401 323.49455042 121.625 328.0625 C122.32488037 328.71855225 123.02476074 329.37460449 123.74584961 330.05053711 C128.72957882 334.72957882 128.72957882 334.72957882 131 337 C130.66739223 342.99973241 124.07803479 347.23908388 120 351 C116.42995397 354.13256686 112.75076778 357.08706606 109 360 C108.47374023 360.41862305 107.94748047 360.83724609 107.40527344 361.26855469 C91.02236786 374.24597079 72.41863031 383.47311655 53 391 C51.82695313 391.46921875 50.65390625 391.9384375 49.4453125 392.421875 C34.32979605 398.18355421 18.14656339 401.41479987 2.16113281 403.69140625 C0.7684714 403.89026798 -0.62297516 404.09793496 -2.01269531 404.31640625 C-28.61052295 408.4304119 -57.54430256 407.25709289 -84 403 C-85.00063477 402.83902832 -86.00126953 402.67805664 -87.03222656 402.51220703 C-139.45397472 393.65039478 -191.63044965 366.15410459 -223.53515625 322.6328125 C-255.45968426 276.2817485 -269.05255226 218.81805487 -259.03515625 162.94140625 C-258.70077337 161.29207181 -258.35529524 159.64495632 -258 158 C-257.80132324 157.07558105 -257.60264648 156.15116211 -257.39794922 155.19873047 C-250.64750658 124.94562314 -237.39339904 95.55930977 -217 72 C-216.34 71.23042969 -215.68 70.46085937 -215 69.66796875 C-212.71268251 67.06530418 -210.37186889 64.52593288 -208 62 C-207.50790039 61.47390137 -207.01580078 60.94780273 -206.50878906 60.40576172 C-193.10036598 46.18856357 -177.87670003 34.79657758 -161 25 C-160.35160156 24.6189209 -159.70320313 24.2378418 -159.03515625 23.84521484 C-146.64552189 16.6475733 -133.49579346 11.72309677 -120 7 C-118.84455688 6.58669434 -118.84455688 6.58669434 -117.66577148 6.16503906 C-80.31760593 -6.84363979 -38.50684147 -6.62625536 0 0 Z " fill="#FDFDFD" transform="translate(491,311)"/>
<path d="M0 0 C1.10102051 0.00757324 2.20204102 0.01514648 3.33642578 0.02294922 C23.13573128 0.42284674 38.69994792 8.8800404 52.375 23 C64.07540916 36.56419115 69.70757675 53.44394377 69.19921875 71.2890625 C67.63137717 89.60250616 59.63736718 104.72045045 46.75 117.4375 C46.12996094 118.05625 45.50992188 118.675 44.87109375 119.3125 C33.42527802 129.90332709 16.25944488 135.88003143 0.8125 135.6875 C0.01690674 135.68000732 -0.77868652 135.67251465 -1.59838867 135.66479492 C-7.0583786 135.56446249 -12.05033618 135.2048276 -17.25 133.4375 C-18.22839844 133.13070312 -19.20679688 132.82390625 -20.21484375 132.5078125 C-37.08570891 126.69027279 -50.77972887 115.1651156 -59.25 99.4375 C-66.88324743 83.55069609 -69.6695544 64.49694541 -64.6875 47.1875 C-63.93862007 45.24509268 -63.12535553 43.32628798 -62.25 41.4375 C-61.5384375 39.83455078 -61.5384375 39.83455078 -60.8125 38.19921875 C-52.39395683 20.97763165 -37.91338031 9.18770407 -20.07202148 2.63793945 C-13.31989927 0.38912201 -7.08779572 -0.06830827 0 0 Z " fill="#00B8A9" transform="translate(726.25,581.5625)"/>
<path d="M0 0 C12.21815935 10.69547583 18.93051467 25.15257335 22.0625 40.8125 C-27.7675 40.8125 -77.5975 40.8125 -128.9375 40.8125 C-126.03764094 27.76313423 -120.86069632 17.73910795 -111.9375 7.8125 C-111.41929687 7.20148438 -110.90109375 6.59046875 -110.3671875 5.9609375 C-82.99379239 -24.1635526 -30.83206174 -23.39280556 0 0 Z " fill="#03080A" transform="translate(495.9375,427.1875)"/>
<path d="M0 0 C0.99 0.33 1.98 0.66 3 1 C2.58427734 2.02480469 2.58427734 2.02480469 2.16015625 3.0703125 C-1.72342992 13.87801494 -1.82222117 24.6175572 -2 36 C-2.33 36 -2.66 36 -3 36 C-3.06058594 35.08476563 -3.12117187 34.16953125 -3.18359375 33.2265625 C-3.26738281 32.03804687 -3.35117187 30.84953125 -3.4375 29.625 C-3.51871094 28.44164062 -3.59992187 27.25828125 -3.68359375 26.0390625 C-3.81084936 23.08481099 -3.81084936 23.08481099 -5 21 C-5.5380323 13.46754783 -4.23575729 6.35363594 0 0 Z " fill="#00322C" transform="translate(662,622)"/>
<path d="M0 0 C0.66 0.66 1.32 1.32 2 2 C1.34773437 2.49628906 0.69546875 2.99257813 0.0234375 3.50390625 C-5.29725291 7.63960514 -9.8164441 11.71550834 -14 17 C-14.64453125 15.234375 -14.64453125 15.234375 -15 13 C-14.07421875 11.078125 -14.07421875 11.078125 -12.6875 9.25 C-12.23761719 8.63640625 -11.78773438 8.0228125 -11.32421875 7.390625 C-10.88722656 6.93171875 -10.45023438 6.4728125 -10 6 C-9.34 6 -8.68 6 -8 6 C-8 5.34 -8 4.68 -8 4 C-5.36 2.68 -2.72 1.36 0 0 Z " fill="#00201B" transform="translate(688,591)"/>
<path d="M0 0 C2.43294867 3.22346511 4.81446918 6.48221985 7.1875 9.75 C7.90292969 10.73484375 8.61835937 11.7196875 9.35546875 12.734375 C9.89816406 13.48203125 10.44085937 14.2296875 11 15 C10.01 15.495 10.01 15.495 9 16 C6.875 15.0625 6.875 15.0625 5 14 C5 13.01 5 12.02 5 11 C3.68 10.34 2.36 9.68 1 9 C1 8.01 1 7.02 1 6 C0.34 6 -0.32 6 -1 6 C-1.625 4.125 -1.625 4.125 -2 2 C-1.34 1.34 -0.68 0.68 0 0 Z " fill="#00201B" transform="translate(666,679)"/>
<path d="M0 0 C1.11826172 0.00322266 2.23652344 0.00644531 3.38867188 0.00976562 C4.55591797 0.01814453 5.72316406 0.02652344 6.92578125 0.03515625 C8.10462891 0.03966797 9.28347656 0.04417969 10.49804688 0.04882812 C13.41150914 0.06062352 16.32486988 0.07708355 19.23828125 0.09765625 C19.23828125 0.42765625 19.23828125 0.75765625 19.23828125 1.09765625 C17.37236328 1.15373047 17.37236328 1.15373047 15.46875 1.2109375 C6.37773473 1.54791235 -2.10544214 2.00473944 -10.76171875 5.09765625 C-9.94921875 3.16015625 -9.94921875 3.16015625 -8.76171875 1.09765625 C-5.58384334 0.03836445 -3.33582932 -0.01693314 0 0 Z " fill="#00332D" transform="translate(713.76171875,580.90234375)"/>
<path d="M0 0 C6.6 0.33 13.2 0.66 20 1 C19.67 1.66 19.34 2.32 19 3 C16.56640625 3.37890625 16.56640625 3.37890625 13.5625 3.5625 C9.63464783 3.73109366 9.63464783 3.73109366 6 5 C6 4.34 6 3.68 6 3 C5.01 3 4.02 3 3 3 C3 2.34 3 1.68 3 1 C2.01 0.67 1.02 0.34 0 0 Z " fill="#001410" transform="translate(714,716)"/>
<path d="M0 0 C0.99 0.33 1.98 0.66 3 1 C1.68 5.29 0.36 9.58 -1 14 C-3.28443808 9.43112384 -3.06082921 7.86213388 -2 3 C-1.34 2.01 -0.68 1.02 0 0 Z " fill="#002621" transform="translate(662,622)"/>
<path d="M0 0 C2.78637633 4.1795645 1.79562512 6.14668677 1 11 C-0.32 11.33 -1.64 11.66 -3 12 C-2.01 8.04 -1.02 4.08 0 0 Z " fill="#002923" transform="translate(793,662)"/>
<path d="M0 0 C-0.66 0.66 -1.32 1.32 -2 2 C-2.66 1.67 -3.32 1.34 -4 1 C-4 1.66 -4 2.32 -4 3 C-6.91708924 4.98362069 -8.12380904 4.9876191 -11.75 4.625 C-12.8225 4.41875 -13.895 4.2125 -15 4 C-12.18438333 2.52790818 -9.38026161 1.34273182 -6.375 0.3125 C-5.59898437 0.04050781 -4.82296875 -0.23148438 -4.0234375 -0.51171875 C-2 -1 -2 -1 0 0 Z " fill="#002823" transform="translate(755,712)"/>
<path d="M0 0 C0.99 0.33 1.98 0.66 3 1 C2.34 2.65 1.68 4.3 1 6 C0.01 6 -0.98 6 -2 6 C-1.49396008 3.83125748 -1.00016187 2.00032373 0 0 Z " fill="#001A15" transform="translate(662,622)"/>
<path d="M0 0 C2 2 2 2 2 5 C-0.97 4.505 -0.97 4.505 -4 4 C-2.68 2.68 -1.36 1.36 0 0 Z " fill="#181D1F" transform="translate(516,463)"/>
</svg>
