<svg xmlns="http://www.w3.org/2000/svg" width="20" height="20" viewBox="0 0 48 48">
  <path fill="#EA4335" d="M24 9.5c3.54 0 5.94 1.53 7.31 2.81l5.38-5.38C33.26 4.15 28.94 2 24 2 14.98 2 7.44 7.81 4.46 15.25l6.99 5.44C13.01 14.87 17.99 9.5 24 9.5z"/>
  <path fill="#4285F4" d="M46.14 24.56c0-1.58-.14-2.73-.44-3.92H24v7.41h12.55c-.26 2.13-1.64 5.32-4.74 7.47l7.28 5.64c4.24-3.92 6.49-9.7 6.49-16.6z"/>
  <path fill="#FBBC05" d="M10.43 28.08c-.48-1.42-.76-2.94-.76-4.58s.28-3.16.76-4.58l-7.04-5.47C1.21 17.1 0 20.41 0 23.5s1.21 6.4 3.39 9.05l7.04-5.47z"/>
  <path fill="#34A853" d="M24 47c6.5 0 11.94-2.15 15.92-5.85l-7.28-5.64C30.59 37.71 27.66 38.5 24 38.5c-6.01 0-10.99-5.37-12.55-11.19l-6.99 5.44C7.44 40.19 14.98 47 24 47z"/>
  <path fill="none" d="M0 0h48v48H0z"/>
</svg>
